<?xml version="1.0" encoding="utf-8"?>
<!-- Generator: Adobe Illustrator 21.0.0, SVG Export Plug-In . SVG Version: 6.00 Build 0)  -->
<svg version="1.1" id="Слой_1" xmlns="http://www.w3.org/2000/svg" xmlns:xlink="http://www.w3.org/1999/xlink" x="0px" y="0px"
	 viewBox="0 0 225 225" style="enable-background:new 0 0 225 225;" xml:space="preserve">
<style type="text/css">
	.st0{clip-path:url(#SVGID_2_);}
	.st1{fill:#EE4137;}
</style>
<g>
	<defs>
		<rect id="SVGID_1_" x="3" y="-1.3" width="218.7" height="225"/>
	</defs>
	<clipPath id="SVGID_2_">
		<use xlink:href="#SVGID_1_"  style="overflow:visible;"/>
	</clipPath>
	<g class="st0">
		<path class="st1" d="M139.8-1.3c0.5,0,1,0,1.5,0c0.2,0.1,0.4,0.3,0.7,0.4c5.8,1.4,8.4,4.7,8.4,10.7c0,6.5,0,12.9,0,19.4
			c0,1.5,0.4,2.1,1.9,2.5c5.1,1.4,8.4,4.8,9.8,9.9c0.2,0.8,0.4,1.7,0.7,2.5c0,55.5,0,111,0,166.5c-0.1,0.2-0.3,0.4-0.3,0.7
			c-1.8,8.6-6.7,12.5-15.4,12.5c-23,0-46.1,0-69.1,0c-1.7,0-3.4-0.2-5.1-0.6c-6.6-1.7-10.4-7.1-10.4-14.5c0-54.2,0-108.3,0-162.5
			c0-1.6,0.2-3.2,0.6-4.7C64,36.2,69.2,31,77,31.1c17.1,0.2,34.2,0.1,51.2,0c2.5,0,2.5,0,2.5-2.5c0-6,0-11.9,0-17.9
			c0-7.2,1.9-9.7,8.8-11.8C139.6-1.1,139.7-1.2,139.8-1.3z M148.7,85.2c0-11.6,0-23.2,0-34.8c0-2.9-0.6-3.6-3.6-3.6
			c-21.8,0-43.7,0-65.5,0c-2.9,0-3.6,0.7-3.6,3.6c0,23.2,0,46.5,0,69.7c0,3,0.5,3.5,3.4,3.5c22,0,43.9,0,65.9,0
			c2.9,0,3.4-0.5,3.4-3.5C148.7,108.4,148.7,96.8,148.7,85.2z M84.1,179.8c1.9,0,3.8,0,5.7,0c1.5,0,2.5-0.7,2.5-2.3
			c0.1-3.9,0-7.8,0-11.8c0-1.5-0.9-2.3-2.2-2.3c-3.9-0.1-7.8-0.1-11.8,0c-1.6,0-2.4,1-2.3,2.6c0,3.7,0,7.3,0,11c0,2,0.8,2.7,2.8,2.7
			C80.6,179.8,82.4,179.8,84.1,179.8z M148.7,171.8c0-1.8-0.1-3.7,0-5.5c0.1-1.8-0.8-2.8-2.5-2.9c-3.8-0.1-7.6-0.1-11.4,0
			c-1.5,0-2.4,0.9-2.4,2.6c0,3.8,0,7.6,0,11.4c0,1.7,1,2.5,2.7,2.5c3.6,0,7.2,0,10.8,0c2.1,0,2.8-0.8,2.8-2.9
			C148.7,175.2,148.7,173.5,148.7,171.8z M76,199.6c0,1.9,0,3.8,0,5.7c0,1.9,0.8,2.7,2.7,2.7c3.7,0,7.3,0,11,0
			c1.7,0,2.6-0.8,2.7-2.5c0-3.8,0-7.6,0-11.4c0-1.6-1-2.5-2.5-2.5c-3.8-0.1-7.6-0.1-11.4,0c-1.6,0-2.5,1-2.5,2.7
			C76.1,196,76,197.8,76,199.6z M148.7,199.7c0-1.8,0-3.5,0-5.3c0-2-0.7-2.9-2.7-2.9c-3.7-0.1-7.3-0.1-11,0c-1.4,0-2.6,0.7-2.6,2.4
			c0,3.9,0,7.8,0,11.8c0,1.5,1,2.3,2.5,2.3c3.8,0,7.6,0,11.4,0c1.6,0,2.5-0.9,2.5-2.5C148.7,203.5,148.7,201.6,148.7,199.7z
			 M84.1,151.6c1.8,0,3.7,0,5.5,0c1.7,0,2.7-0.7,2.7-2.5c0-3.8,0-7.6,0-11.4c0-1.6-0.9-2.5-2.5-2.5c-3.8,0-7.6,0-11.4,0
			c-1.6,0-2.4,0.9-2.4,2.5c0,3.7,0,7.5,0,11.2c0,1.7,0.9,2.6,2.6,2.5C80.5,151.6,82.3,151.6,84.1,151.6z M140.5,151.6
			c1.8,0,3.7,0,5.5,0c1.9,0,2.6-0.8,2.6-2.7c0-3.7,0-7.4,0-11c0-1.6-0.7-2.6-2.4-2.6c-3.9,0-7.7,0-11.6,0c-1.5,0-2.4,0.9-2.4,2.4
			c0,3.9,0,7.7,0,11.6c0,1.7,1,2.3,2.6,2.3C136.8,151.6,138.7,151.6,140.5,151.6z M104.2,199.5C104.2,199.5,104.2,199.5,104.2,199.5
			c0,2,0,3.9,0,5.9c0,1.7,0.9,2.6,2.6,2.6c3.7,0,7.3,0,11,0c1.8,0,2.7-0.9,2.7-2.7c0-3.7,0-7.3,0-11c0-1.8-0.9-2.8-2.6-2.8
			c-3.7-0.1-7.3-0.1-11,0c-2,0.1-2.7,0.9-2.7,2.9C104.1,196.1,104.2,197.8,104.2,199.5z M112.2,151.6c1.9,0,3.8,0,5.7,0
			c1.7,0,2.6-0.9,2.6-2.6c0-3.7,0-7.5,0-11.2c0-1.6-0.8-2.5-2.4-2.5c-3.9,0-7.7,0-11.6,0c-1.5,0-2.3,0.9-2.3,2.4c0,3.8,0,7.6,0,11.4
			c0,1.6,0.9,2.4,2.5,2.4C108.5,151.6,110.4,151.6,112.2,151.6z M112.1,179.8c2,0,3.9,0,5.9,0c1.6,0,2.5-0.8,2.5-2.4
			c0-3.9,0-7.7,0-11.6c0-1.3-0.7-2.3-2-2.3c-4-0.1-8.1-0.1-12.1,0c-1.4,0-2.1,1-2.1,2.4c0,3.8,0,7.6,0,11.4c0,1.7,0.9,2.6,2.6,2.6
			C108.6,179.8,110.3,179.8,112.1,179.8z"/>
	</g>
</g>
</svg>
