<?xml version="1.0" encoding="utf-8"?>
<!-- Generator: Adobe Illustrator 21.0.0, SVG Export Plug-In . SVG Version: 6.00 Build 0)  -->
<svg version="1.1" id="Слой_1" xmlns="http://www.w3.org/2000/svg" xmlns:xlink="http://www.w3.org/1999/xlink" x="0px" y="0px"
	 viewBox="0 0 225 225" style="enable-background:new 0 0 225 225;" xml:space="preserve">
<style type="text/css">
	.st0{clip-path:url(#SVGID_2_);fill:#E8423A;}
</style>
<g>
	<defs>
		<rect id="SVGID_1_" x="0.5" y="0.7" width="224.8" height="224.8"/>
	</defs>
	<clipPath id="SVGID_2_">
		<use xlink:href="#SVGID_1_"  style="overflow:visible;"/>
	</clipPath>
	<path class="st0" d="M183.2,123.8c-4.3,8.9-8.6,17.7-12.9,26.6c-1.9,3.4-3.8,6.8-5.7,10.3c-9,14.6-18.3,29-28.6,42.7
		c-6.8,7.6-12.5,16.2-21.3,21.8c-3.1,0.1-5.6-1.8-8.3-2.8c-1.3-1-2.6-2-4-3c-2.3-2.1-4.5-4.3-6.8-6.4c-0.9-1-1.9-1.9-2.8-2.9
		c-1.9-2.2-3.8-4.4-5.7-6.6c-0.8-1-1.6-2-2.5-3c-2.3-3-4.5-6-6.8-8.9c-0.4-0.5-0.7-0.9-1.1-1.4c-1.9-2.8-3.9-5.7-5.8-8.5
		c-0.6-1.6-1.5-3-2.7-4.1c-1.8-3-3.7-6-5.5-9c-0.4-0.7-0.9-1.4-1.3-2.1c-1.2-3.1-2.9-5.8-4.8-8.5c-0.5-1-1.1-2-1.6-2.9
		c-1.9-3.7-3.7-7.5-5.6-11.2c-0.3-0.7-0.7-1.4-1-2.1c-1.4-3.1-2.8-6.3-4.2-9.4c-0.2-1.4-0.7-2.7-1.7-3.9c-1.2-3.2-2.3-6.4-3.5-9.6
		c-0.5-1.2-0.3-2.7-1.4-3.6c-1-3.5-2-6.9-3-10.4c-0.4-1.6-0.8-3.3-1.2-4.9c-0.8-4.1-1.6-8.1-2.5-12.2c-0.1-1.3-0.2-2.5-0.3-3.8
		c-0.2-4.7-0.4-9.5-0.6-14.2c0.7-1.5,0.7-3.1,0.6-4.8c1-6.2,2.5-12.2,4.7-18.1c1.5-3.1,2.9-6.2,4.4-9.3C46.8,26.7,55.7,18,66.4,11.1
		c3.1-1.5,6.2-3,9.3-4.5c16.6-6.9,33.6-6.6,50.9-3.7c1.4,0.2,2.8,0.3,4.2,0.4c1.1,1,2.5,0.9,3.8,0.9c3.4,1.1,6.9,2.2,10.3,3.3
		c1,0.4,2,0.8,3,1.2c3.5,1.7,6.9,3.3,10.4,5c0.7,1,1.7,1.5,2.9,1.8c2.2,1.6,4.4,3.2,6.7,4.7c1.2,1,2.5,2,3.7,3
		c2.2,2.2,4.3,4.4,6.5,6.6c1,1.2,2,2.5,3.1,3.7c1.8,2.7,3.6,5.4,5.5,8.1c0.4,1.4,0.9,2.7,2,3.7c1.1,2.7,2.2,5.4,3.3,8.1
		c0.5,1.3,1,2.6,1.4,3.9c0.7,4.1,1.5,8.2,2.2,12.2c0,1.3,0.1,2.6,0.1,3.8c-0.5,5.4-1.1,10.7-1.6,16.1c-0.4,1.9-0.8,3.8-1.2,5.7
		c-2.1,6.6-4.1,13.3-6.2,19.9C185.5,118.1,184.3,120.9,183.2,123.8z M107.1,44.1c-19.7-0.2-33.7,13.6-34.6,34
		c-0.5,1.6-0.6,3.3,0.2,4.9c-0.1,4.1,0.8,7.9,2.9,11.4c0.1,1.6,0.8,2.9,1.9,4c1,2.9,2.7,5.2,4.9,7.3c0.8,1.7,2.2,2.9,3.7,4
		c2.1,2.5,4.6,4.5,7.6,5.8c0.8,0.9,1.7,1.5,3,1.6c3.4,2.3,7.3,3,11.3,3.4c1.6,0.5,3.2,0.5,4.9,0.1c19.3-1.1,32.9-14.7,35.5-35.7
		c0.6-1.6,0.6-3.2,0.4-4.8c0.6-4.3-0.2-8.4-2-12.3c-0.1-1.1-0.6-2.1-1.4-2.9c-1.2-3.4-3.2-6.2-5.9-8.5c-0.9-1.6-2.2-2.7-3.9-3.6
		c-2.5-2.3-5.2-4.2-8.5-5.1c-1.1-1-2.4-1.5-3.8-1.6c-3.9-1.7-8-2.5-12.3-2C109.6,44.1,108.4,44.1,107.1,44.1z"/>
</g>
</svg>
