<?xml version="1.0" encoding="utf-8"?>
<!-- Generator: Adobe Illustrator 21.0.0, SVG Export Plug-In . SVG Version: 6.00 Build 0)  -->
<svg version="1.1" id="Слой_1" xmlns="http://www.w3.org/2000/svg" xmlns:xlink="http://www.w3.org/1999/xlink" x="0px" y="0px"
	 viewBox="0 0 225 225" style="enable-background:new 0 0 225 225;" xml:space="preserve">
<style type="text/css">
	.st0{clip-path:url(#SVGID_2_);fill:#EE4137;}
</style>
<g>
	<defs>
		<rect id="SVGID_1_" x="-15.4" y="-1.3" width="254.9" height="225"/>
	</defs>
	<clipPath id="SVGID_2_">
		<use xlink:href="#SVGID_1_"  style="overflow:visible;"/>
	</clipPath>
	<path class="st0" d="M112,189.7c-30.8,0-61.7,0-92.5,0c-12.8,0-19.1-6.2-19.1-19c0-39.8,0-79.7,0-119.5c0-12.4,6.3-18.7,18.8-18.7
		c61.8,0,123.6,0,185.4,0c12.5,0,18.9,6.3,18.9,18.7c0,40,0,80,0,120c0,12.1-6.4,18.5-18.6,18.5C174,189.8,143,189.7,112,189.7z
		 M12.7,41.2c2.5,2.7,3.9,4.3,5.4,5.8c18.7,18.7,37.4,37.4,56.1,56.1c8.7,8.7,17.3,17.5,26.3,25.9c5.5,5.1,12.2,6.2,19,2.6
		c3.4-1.9,6.4-4.7,9.2-7.5c20.8-20.6,41.5-41.4,62.2-62.1c6.5-6.5,13-13.1,20.6-20.8H12.7z M14.4,180.6c5.3,2,192.2,1.6,195-0.3
		c-20.7-20.7-41.5-41.5-63.2-63.3c-4.9,5.3-9.9,10.8-15,16.2c-10.5,11.1-27.7,11.1-38.3,0c-5.1-5.4-10.1-10.9-15-16.2L14.4,180.6z
		 M8.8,50.8v121.1c20.5-20.4,40.8-40.6,60.6-60.4C49.4,91.4,29.2,71.1,8.8,50.8z M155.2,111c19.8,20,40,40.3,60.1,60.6V50.9
		C195,71.2,174.7,91.5,155.2,111z"/>
</g>
</svg>
